<?xml version="1.0" encoding="UTF-8"?>
<!DOCTYPE svg PUBLIC "-//W3C//DTD SVG 1.1//EN" "http://www.w3.org/Graphics/SVG/1.1/DTD/svg11.dtd">
<svg version="1.1" xmlns="http://www.w3.org/2000/svg" xmlns:xlink="http://www.w3.org/1999/xlink" x="0" y="0" width="782" height="466" viewBox="0, 0, 782, 466">
  <defs>
    <clipPath id="Clip_1">
      <path d="M0.06,0.04 L781.291,0.04 L781.291,466 L0.06,466 z"/>
    </clipPath>
    <clipPath id="Clip_2">
      <path d="M0.06,258 L780,258 L780,466 L0.06,466 z"/>
    </clipPath>
  </defs>
  <g id="Layer_1">
    <g clip-path="url(#Clip_1)">
      <path d="M1.291,0.04 L781.291,0.04 L781.291,466 L1.291,466 z" fill="#CFEBF3"/>
    </g>
    <path d="M713.624,399.006 L601.519,341.582 L623.315,299.03 L735.422,356.455 L713.624,399.006" fill="#B79267"/>
    <path d="M651.558,270.111 L614.658,292.531 L744.081,358.824 L739.115,314.961 L651.558,270.111" fill="#B79267"/>
    <path d="M663.371,281.327 L648.643,273.783 L655.77,259.872 L670.496,267.417 L663.371,281.327" fill="#B79267"/>
    <path d="M631.395,340.808 L615.876,332.858 L621.937,321.024 L637.457,328.975 L631.395,340.808" fill="#FFFFFE"/>
    <path d="M637.037,329.614 C634.822,333.938 629.561,335.668 625.283,333.478 C621.007,331.286 619.333,326.005 621.551,321.68 C623.765,317.355 629.027,315.625 633.306,317.815 C637.582,320.006 639.253,325.288 637.037,329.614" fill="#FFFFFE"/>
    <path d="M623.871,340.078 L621.924,339.081 L634.016,315.475 L635.962,316.473 L623.871,340.078" fill="#B79267"/>
    <path d="M637.764,332.7 L619.051,323.115 L619.928,321.405 L638.641,330.991 L637.764,332.7" fill="#B79267"/>
    <path d="M657.576,354.221 L642.057,346.269 L648.118,334.436 L663.637,342.387 L657.576,354.221" fill="#FFFFFE"/>
    <path d="M663.218,343.024 C661.003,347.35 655.74,349.078 651.464,346.889 C647.188,344.696 645.517,339.416 647.732,335.093 C649.945,330.766 655.208,329.036 659.485,331.227 C663.763,333.417 665.435,338.698 663.218,343.024" fill="#FFFFFE"/>
    <path d="M650.054,353.49 L648.104,352.49 L660.195,328.886 L662.144,329.885 L650.054,353.49" fill="#B79267"/>
    <path d="M663.945,346.111 L645.231,336.526 L646.108,334.816 L664.821,344.4 L663.945,346.111" fill="#B79267"/>
    <path d="M683.757,367.628 L668.239,359.681 L674.297,347.846 L689.817,355.796 L683.757,367.628" fill="#FFFFFE"/>
    <path d="M689.398,356.436 C687.184,360.76 681.922,362.489 677.645,360.296 C673.367,358.107 671.697,352.826 673.912,348.502 C676.128,344.176 681.391,342.445 685.666,344.637 C689.943,346.827 691.615,352.109 689.398,356.436" fill="#FFFFFE"/>
    <path d="M676.234,366.899 L674.283,365.901 L686.374,342.295 L688.325,343.294 L676.234,366.899" fill="#B79267"/>
    <path d="M690.126,359.521 L671.413,349.937 L672.289,348.227 L691.002,357.811 L690.126,359.521" fill="#B79267"/>
    <path d="M709.938,381.041 L694.418,373.089 L700.479,361.257 L715.998,369.205 L709.938,381.041" fill="#FFFFFE"/>
    <path d="M715.578,369.845 C713.364,374.17 708.103,375.9 703.825,373.709 C699.549,371.519 697.877,366.236 700.094,361.913 C702.307,357.588 707.572,355.857 711.848,358.049 C716.124,360.24 717.795,365.521 715.578,369.845" fill="#FFFFFE"/>
    <path d="M702.413,380.311 L700.466,379.313 L712.558,355.708 L714.505,356.706 L702.413,380.311" fill="#B79267"/>
    <path d="M716.306,372.933 L697.595,363.347 L698.471,361.638 L717.183,371.222 L716.306,372.933" fill="#B79267"/>
    <path d="M152,356.438 L106.378,377.604 L88.194,338.407 L133.816,317.244 L152,356.438" fill="#D4AD69"/>
    <path d="M113.962,335.041 L82.507,349.635 L99.057,302.915 L145.416,320.447 L113.962,335.041" fill="#D4AD69"/>
    <path d="M127.471,318.261 L121.292,321.128 L112.406,301.975 L118.584,299.108 L127.471,318.261" fill="#D4AD69"/>
    <path d="M136.994,354.697 L115.373,364.532 L107.872,348.047 L129.496,338.211 L136.994,354.697" fill="#FFFFFE"/>
    <path d="M129.823,339.2 C132.563,345.224 129.954,352.305 123.997,355.013 C118.039,357.726 110.984,355.04 108.247,349.012 C105.503,342.988 108.113,335.905 114.072,333.196 C120.029,330.485 127.081,333.172 129.823,339.2" fill="#FFFFFE"/>
    <path d="M129.846,362.109 L127.134,363.343 L112.175,330.457 L114.889,329.223 L129.846,362.109" fill="#D4AD69"/>
    <path d="M133.733,341.038 L107.663,352.894 L106.58,350.512 L132.649,338.653 L133.733,341.038" fill="#D4AD69"/>
    <path d="M121.814,197.529 C123.237,203.185 119.806,208.924 114.15,210.347 C108.495,211.771 102.755,208.34 101.332,202.684 C99.909,197.027 103.34,191.289 108.996,189.865 C114.651,188.442 120.39,191.873 121.814,197.529" fill="#FFFFFE"/>
    <path d="M129.664,184.398 C131.088,190.054 127.656,195.792 122.001,197.216 C116.346,198.64 110.606,195.209 109.183,189.552 C107.759,183.897 111.191,178.157 116.847,176.734 C122.501,175.311 128.241,178.743 129.664,184.398" fill="#FFFFFE"/>
    <path d="M135.689,202.004 C137.113,207.661 133.682,213.399 128.026,214.823 C122.37,216.246 116.631,212.814 115.208,207.159 C113.784,201.503 117.215,195.765 122.872,194.341 C128.527,192.918 134.266,196.349 135.689,202.004" fill="#FFFFFE"/>
    <path d="M142.418,190.75 C143.841,196.406 140.411,202.146 134.755,203.568 C129.099,204.992 123.36,201.561 121.936,195.904 C120.513,190.249 123.944,184.51 129.6,183.086 C135.256,181.663 140.995,185.094 142.418,190.75" fill="#FFFFFE"/>
    <path d="M149.802,198.984 C151.225,204.64 147.795,210.379 142.139,211.803 C136.482,213.226 130.744,209.795 129.32,204.139 C127.897,198.482 131.328,192.744 136.984,191.321 C142.641,189.897 148.378,193.328 149.802,198.984" fill="#FFFFFE"/>
    <path d="M146.088,181.062 C147.512,186.718 144.081,192.457 138.425,193.88 C132.77,195.304 127.03,191.872 125.607,186.216 C124.183,180.56 127.614,174.821 133.27,173.398 C138.926,171.975 144.665,175.405 146.088,181.062" fill="#FFFFFE"/>
    <path d="M156.718,187.416 C158.142,193.073 154.71,198.812 149.055,200.235 C143.398,201.658 137.66,198.228 136.237,192.571 C134.813,186.915 138.244,181.177 143.9,179.753 C149.556,178.33 155.294,181.761 156.718,187.416" fill="#FFFFFE"/>
    <path d="M563.999,333.254 L560.709,332.249 L566.848,312.14 L570.138,313.144 L563.999,333.254" fill="#7D563A"/>
    <path d="M578.657,338.195 L575.367,337.189 L581.506,317.08 L584.796,318.084 L578.657,338.195" fill="#7D563A"/>
    <path d="M346.517,309.671 L282.061,319.286 L265.012,205.002 L329.468,195.386 L346.517,309.671" fill="#917E70"/>
    <path d="M287.668,222.598 L275.207,224.457 L273.426,212.514 L285.886,210.655 L287.668,222.598" fill="#FFFFFE"/>
    <path d="M306.878,219.731 L294.417,221.59 L292.636,209.648 L305.096,207.791 L306.878,219.731" fill="#FFFFFE"/>
    <path d="M326.088,216.866 L313.627,218.725 L311.846,206.783 L324.307,204.924 L326.088,216.866" fill="#FFFFFE"/>
    <path d="M290.572,242.067 L278.112,243.926 L276.33,231.985 L288.791,230.127 L290.572,242.067" fill="#FFFFFE"/>
    <path d="M309.782,239.202 L297.322,241.061 L295.54,229.119 L308.001,227.26 L309.782,239.202" fill="#FFFFFE"/>
    <path d="M328.993,236.336 L316.532,238.194 L314.75,226.254 L327.211,224.395 L328.993,236.336" fill="#FFFFFE"/>
    <path d="M293.477,261.537 L281.016,263.396 L279.234,251.455 L291.695,249.596 L293.477,261.537" fill="#FFFFFE"/>
    <path d="M312.687,258.671 L300.226,260.53 L298.445,248.59 L310.906,246.73 L312.687,258.671" fill="#FFFFFE"/>
    <path d="M331.897,255.806 L319.437,257.665 L317.655,245.723 L330.116,243.864 L331.897,255.806" fill="#FFFFFE"/>
    <path d="M296.381,281.008 L283.92,282.866 L282.139,270.924 L294.6,269.064 L296.381,281.008" fill="#FFFFFE"/>
    <path d="M315.591,278.142 L303.13,280.001 L301.349,268.059 L313.81,266.199 L315.591,278.142" fill="#FFFFFE"/>
    <path d="M334.802,275.276 L322.341,277.135 L320.559,265.193 L333.02,263.334 L334.802,275.276" fill="#FFFFFE"/>
    <path d="M158.235,355.955 C158.235,355.955 176.834,318.681 176.751,274.688 C176.668,230.695 170.27,196.913 164.636,174.473 C159.001,152.034 155.767,144.31 155.767,144.31 L152.115,131.89 L155.299,127.419 L161.369,129.49 L165.021,141.91 C165.021,141.91 183.018,214.05 215.283,258.219 C247.546,302.386 262.35,311.209 278.891,320.48 C278.717,319.888 243.109,331.001 243.109,331.001 C243.109,331.001 231.562,293.914 206.355,303.252 C181.148,312.591 193.392,346.582 193.392,346.582 L158.235,355.955" fill="#7D563A"/>
    <path d="M157.352,130.028 L155.281,130.637 L150.412,114.076 L152.482,113.468 L157.352,130.028" fill="#7D563A"/>
    <path d="M209.266,246.493 L174.665,256.666 L171.448,245.724 L206.048,235.552 L209.266,246.493" fill="#7D563A"/>
    <path d="M238.972,283.059 L169.772,303.405 L166.294,291.577 L235.494,271.232 L238.972,283.059" fill="#7D563A"/>
    <path d="M186.494,253.188 C186.494,253.188 189.258,276.793 188.005,284.551 C188.179,285.143 213.142,277.161 213.142,277.161 C213.142,277.161 202.619,263.225 196.462,249.936 C197.019,250.737 186.494,253.188 186.494,253.188" fill="#CFEBF3"/>
    <path d="M167.145,131.647 L149.105,136.952 L148.757,135.768 L166.796,130.464 L167.145,131.647" fill="#7D563A"/>
    <path d="M401.409,306.061 L364.495,306.705 L363.941,274.991 L400.854,274.347 L401.409,306.061" fill="#C66C70"/>
    <path d="M382.238,280.392 L356.787,280.836 L381.784,254.396 L407.688,279.946 L382.238,280.392" fill="#C66C70"/>
    <path d="M381.727,293.933 L371.506,294.111 L371.298,282.188 L381.519,282.008 L381.727,293.933" fill="#FFFFFE"/>
    <path d="M393.904,293.72 L383.684,293.898 L383.476,281.975 L393.695,281.796 L393.904,293.72" fill="#FFFFFE"/>
    <path d="M396.293,273.145 L391.294,273.231 L391.022,257.734 L396.022,257.646 L396.293,273.145" fill="#C66C70"/>
    <path d="M517.737,322.614 L503.972,320.063 L515.721,256.643 L529.488,259.193 L517.737,322.614" fill="#7D563A"/>
    <path d="M502.5,268.854 C502.5,268.854 502.459,281.582 516.043,289.501 C531.631,286.599 536.787,277.521 538.569,272.063" fill-opacity="0" stroke="#7D563A" stroke-width="6"/>
    <path d="M541.69,220.773 C539.98,230.005 531.11,236.103 521.879,234.393 C512.646,232.681 506.549,223.811 508.259,214.58 C509.97,205.349 518.841,199.25 528.071,200.961 C537.305,202.671 543.401,211.542 541.69,220.773" fill="#77956C"/>
    <path d="M519.421,233.936 C517.71,243.168 508.839,249.267 499.608,247.555 C490.375,245.844 484.277,236.975 485.989,227.743 C487.699,218.511 496.569,212.414 505.801,214.124 C515.033,215.835 521.13,224.705 519.421,233.936" fill="#77956C"/>
    <path d="M560.462,237.474 C558.753,246.704 549.883,252.801 540.649,251.091 C531.419,249.38 525.322,240.51 527.032,231.278 C528.741,222.048 537.611,215.95 546.845,217.661 C556.075,219.37 562.173,228.241 560.462,237.474" fill="#77956C"/>
    <path d="M504.413,254.548 C502.703,263.779 493.833,269.877 484.601,268.166 C475.37,266.456 469.273,257.587 470.983,248.354 C472.692,239.122 481.563,233.025 490.796,234.735 C500.026,236.446 506.125,245.317 504.413,254.548" fill="#77956C"/>
    <path d="M569.547,262.548 C567.837,271.779 558.966,277.876 549.735,276.167 C540.503,274.455 534.406,265.584 536.116,256.354 C537.826,247.121 546.695,241.023 555.928,242.735 C565.16,244.445 571.258,253.315 569.547,262.548" fill="#77956C"/>
    <path d="M543.92,249.917 C541.831,261.186 531.004,268.628 519.735,266.54 C508.467,264.451 501.025,253.625 503.112,242.357 C505.201,231.089 516.027,223.646 527.297,225.735 C538.563,227.821 546.007,238.648 543.92,249.917" fill="#77956C"/>
    <path d="M549.499,266.46 C547.788,275.692 538.917,281.789 529.687,280.078 C520.455,278.369 514.357,269.499 516.067,260.266 C517.778,251.034 526.648,244.938 535.88,246.647 C545.112,248.357 551.209,257.229 549.499,266.46" fill="#77956C"/>
    <path d="M522.986,264.091 C521.274,273.322 512.405,279.419 503.173,277.709 C493.942,276 487.846,267.13 489.555,257.896 C491.266,248.666 500.136,242.567 509.369,244.278 C518.6,245.988 524.696,254.859 522.986,264.091" fill="#77956C"/>
    <path d="M578.487,275.322 C578.487,275.322 545.397,310.388 567.336,317.085 C589.274,323.782 578.487,275.322 578.487,275.322" fill="#98BB5C"/>
    <path d="M593.147,280.262 C593.147,280.262 560.056,315.328 581.995,322.025 C603.934,328.723 593.147,280.262 593.147,280.262" fill="#98BB5C"/>
    <path d="M592.413,340.888 L589.156,339.776 L595.944,319.875 L599.199,320.986 L592.413,340.888" fill="#7D563A"/>
    <path d="M608.771,283.455 C608.771,283.455 574.562,317.429 596.271,324.835 C617.982,332.24 608.771,283.455 608.771,283.455" fill="#98BB5C"/>
    <path d="M606.288,348.298 L603.063,347.104 L610.357,327.384 L613.584,328.578 L606.288,348.298" fill="#7D563A"/>
    <path d="M624.115,291.305 C624.115,291.305 589.046,324.39 610.559,332.351 C632.071,340.309 624.115,291.305 624.115,291.305" fill="#98BB5C"/>
    <path d="M461.267,133.466 C461.267,140.83 455.297,146.798 447.934,146.798 C440.571,146.798 434.602,140.83 434.602,133.466 C434.602,126.102 440.571,120.133 447.934,120.133 C455.297,120.133 461.267,126.102 461.267,133.466" fill="#FFFFFE"/>
    <path d="M474.924,119.808 C474.924,127.171 468.955,133.141 461.592,133.141 C454.229,133.141 448.259,127.171 448.259,119.808 C448.259,112.444 454.229,106.476 461.592,106.476 C468.955,106.476 474.924,112.444 474.924,119.808" fill="#FFFFFE"/>
    <path d="M476.876,143.221 C476.876,150.585 470.906,156.554 463.543,156.554 C456.18,156.554 450.211,150.585 450.211,143.221 C450.211,135.858 456.18,129.889 463.543,129.889 C470.906,129.889 476.876,135.858 476.876,143.221" fill="#FFFFFE"/>
    <path d="M488.582,131.514 C488.582,138.878 482.612,144.848 475.25,144.848 C467.886,144.848 461.916,138.878 461.916,131.514 C461.916,124.151 467.886,118.182 475.25,118.182 C482.612,118.182 488.582,124.151 488.582,131.514" fill="#FFFFFE"/>
    <path d="M495.086,143.872 C495.086,151.235 489.117,157.204 481.753,157.204 C474.389,157.204 468.421,151.235 468.421,143.872 C468.421,136.508 474.389,130.539 481.753,130.539 C489.117,130.539 495.086,136.508 495.086,143.872" fill="#FFFFFE"/>
    <path d="M496.061,120.783 C496.061,128.147 490.092,134.116 482.729,134.116 C475.365,134.116 469.396,128.147 469.396,120.783 C469.396,113.42 475.365,107.451 482.729,107.451 C490.092,107.451 496.061,113.42 496.061,120.783" fill="#FFFFFE"/>
    <path d="M507.117,131.84 C507.117,139.204 501.148,145.172 493.785,145.172 C486.422,145.172 480.452,139.204 480.452,131.84 C480.452,124.476 486.422,118.507 493.785,118.507 C501.148,118.507 507.117,124.476 507.117,131.84" fill="#FFFFFE"/>
    <path d="M690.755,181.463 C690.755,188.827 684.785,194.796 677.422,194.796 C670.06,194.796 664.09,188.827 664.09,181.463 C664.09,174.1 670.06,168.13 677.422,168.13 C684.785,168.13 690.755,174.1 690.755,181.463" fill="#FFFFFE"/>
    <path d="M704.412,167.806 C704.412,175.169 698.443,181.138 691.08,181.138 C683.717,181.138 677.747,175.169 677.747,167.806 C677.747,160.442 683.717,154.473 691.08,154.473 C698.443,154.473 704.412,160.442 704.412,167.806" fill="#FFFFFE"/>
    <path d="M706.364,191.219 C706.364,198.583 700.395,204.551 693.031,204.551 C685.668,204.551 679.699,198.583 679.699,191.219 C679.699,183.855 685.668,177.886 693.031,177.886 C700.395,177.886 706.364,183.855 706.364,191.219" fill="#FFFFFE"/>
    <path d="M718.07,179.512 C718.07,186.876 712.101,192.845 704.738,192.845 C697.374,192.845 691.404,186.876 691.404,179.512 C691.404,172.148 697.374,166.18 704.738,166.18 C712.101,166.18 718.07,172.148 718.07,179.512" fill="#FFFFFE"/>
    <path d="M724.574,191.869 C724.574,199.233 718.605,205.202 711.241,205.202 C703.877,205.202 697.909,199.233 697.909,191.869 C697.909,184.505 703.877,178.537 711.241,178.537 C718.605,178.537 724.574,184.505 724.574,191.869" fill="#FFFFFE"/>
    <path d="M725.549,168.781 C725.549,176.145 719.58,182.114 712.217,182.114 C704.854,182.114 698.884,176.145 698.884,168.781 C698.884,161.417 704.854,155.448 712.217,155.448 C719.58,155.448 725.549,161.417 725.549,168.781" fill="#FFFFFE"/>
    <path d="M736.605,179.837 C736.605,187.201 730.637,193.17 723.273,193.17 C715.91,193.17 709.94,187.201 709.94,179.837 C709.94,172.474 715.91,166.505 723.273,166.505 C730.637,166.505 736.605,172.474 736.605,179.837" fill="#FFFFFE"/>
    <path d="M260.683,81.962 C260.683,87.794 255.955,92.522 250.123,92.522 C244.291,92.522 239.563,87.794 239.563,81.962 C239.563,76.129 244.291,71.401 250.123,71.401 C255.955,71.401 260.683,76.129 260.683,81.962" fill="#FFFFFE"/>
    <path d="M271.501,71.144 C271.501,76.977 266.772,81.704 260.941,81.704 C255.109,81.704 250.381,76.977 250.381,71.144 C250.381,65.312 255.109,60.583 260.941,60.583 C266.772,60.583 271.501,65.312 271.501,71.144" fill="#FFFFFE"/>
    <path d="M273.047,89.688 C273.047,95.521 268.319,100.249 262.487,100.249 C256.654,100.249 251.927,95.521 251.927,89.688 C251.927,83.856 256.654,79.128 262.487,79.128 C268.319,79.128 273.047,83.856 273.047,89.688" fill="#FFFFFE"/>
    <path d="M282.319,80.416 C282.319,86.249 277.591,90.977 271.759,90.977 C265.926,90.977 261.198,86.249 261.198,80.416 C261.198,74.584 265.926,69.856 271.759,69.856 C277.591,69.856 282.319,74.584 282.319,80.416" fill="#FFFFFE"/>
    <path d="M287.47,90.204 C287.47,96.036 282.743,100.764 276.91,100.764 C271.077,100.764 266.35,96.036 266.35,90.204 C266.35,84.371 271.077,79.644 276.91,79.644 C282.743,79.644 287.47,84.371 287.47,90.204" fill="#FFFFFE"/>
    <path d="M288.243,71.917 C288.243,77.749 283.515,82.477 277.683,82.477 C271.851,82.477 267.123,77.749 267.123,71.917 C267.123,66.084 271.851,61.356 277.683,61.356 C283.515,61.356 288.243,66.084 288.243,71.917" fill="#FFFFFE"/>
    <path d="M297,80.674 C297,86.506 292.272,91.234 286.44,91.234 C280.608,91.234 275.88,86.506 275.88,80.674 C275.88,74.841 280.608,70.114 286.44,70.114 C292.272,70.114 297,74.841 297,80.674" fill="#FFFFFE"/>
    <path d="M629.41,81.917 C629.41,87.75 624.682,92.477 618.85,92.477 C613.018,92.477 608.289,87.75 608.289,81.917 C608.289,76.084 613.018,71.356 618.85,71.356 C624.682,71.356 629.41,76.084 629.41,81.917" fill="#FFFFFE"/>
    <path d="M640.228,71.099 C640.228,76.932 635.499,81.659 629.668,81.659 C623.836,81.659 619.107,76.932 619.107,71.099 C619.107,65.267 623.836,60.539 629.668,60.539 C635.499,60.539 640.228,65.267 640.228,71.099" fill="#FFFFFE"/>
    <path d="M641.773,89.644 C641.773,95.476 637.045,100.204 631.213,100.204 C625.381,100.204 620.653,95.476 620.653,89.644 C620.653,83.811 625.381,79.083 631.213,79.083 C637.045,79.083 641.773,83.811 641.773,89.644" fill="#FFFFFE"/>
    <path d="M651.045,80.371 C651.045,86.204 646.317,90.932 640.485,90.932 C634.652,90.932 629.925,86.204 629.925,80.371 C629.925,74.539 634.652,69.811 640.485,69.811 C646.317,69.811 651.045,74.539 651.045,80.371" fill="#FFFFFE"/>
    <path d="M656.196,90.159 C656.196,95.991 651.47,100.719 645.637,100.719 C639.804,100.719 635.076,95.991 635.076,90.159 C635.076,84.326 639.804,79.599 645.637,79.599 C651.47,79.599 656.196,84.326 656.196,90.159" fill="#FFFFFE"/>
    <path d="M656.969,71.872 C656.969,77.704 652.241,82.432 646.409,82.432 C640.577,82.432 635.85,77.704 635.85,71.872 C635.85,66.039 640.577,61.311 646.409,61.311 C652.241,61.311 656.969,66.039 656.969,71.872" fill="#FFFFFE"/>
    <path d="M665.727,80.629 C665.727,86.461 660.998,91.189 655.166,91.189 C649.334,91.189 644.606,86.461 644.606,80.629 C644.606,74.796 649.334,70.069 655.166,70.069 C660.998,70.069 665.727,74.796 665.727,80.629" fill="#FFFFFE"/>
    <path d="M434.604,99.644 L340.992,99.576 C340.992,99.576 331.349,100.721 328.054,106.338 C322.593,107.134 318.077,110.629 318,111.772 C317.921,112.916 320.054,115.358 324.775,116.097 C329.498,116.834 404.331,118.374 404.331,118.374 C404.331,118.374 429.927,117.704 442.133,112.951 C442.178,112.857 451.56,110.066 453.885,106.617 C456.308,103.024 451.675,98.769 451.675,98.769 L434.604,99.644" fill="#5D7CA8"/>
    <path d="M371.075,99.885 L420.526,71.73 C420.526,71.73 422.833,70.125 424.603,70.622 C426.37,71.118 427.236,71.772 427.236,71.772 L401.83,100.756 L371.075,99.885" fill="#5D7CA8"/>
    <path d="M358.619,113.493 L394.761,114.71 L398.471,149.443 C398.471,149.443 393.541,150.85 390.723,146.895 C387.902,142.94 358.619,113.493 358.619,113.493" fill="#5D7CA8"/>
    <path d="M430.018,104.757 L453.066,80.426 C453.066,80.426 457.865,76.832 462.738,77.996 C463.121,78.18 454.53,105.103 454.53,105.103 L430.018,104.757" fill="#5D7CA8"/>
    <path d="M434.917,107.825 L453.657,107.163 L459.896,126.343 C459.896,126.343 458.384,127.032 456.31,125.208 C454.235,123.383 434.917,107.825 434.917,107.825" fill="#5D7CA8"/>
    <path d="M454.66,104.102 L468.683,90.422 C468.683,90.422 467.384,89.442 465.587,90.231 C463.789,91.02 432.24,103.819 432.24,103.819 L454.66,104.102" fill="#5D7CA8"/>
    <path d="M373.435,123.93 L368.058,124.06 C368.058,124.06 366.254,124.372 366.192,126.466 C366.128,128.562 367.121,129.02 368.471,129.335 C370.382,129.782 374.947,129.619 374.947,129.619 L373.435,123.93" fill="#5D7CA8"/>
    <path d="M384.442,134.425 L379.067,134.554 C379.067,134.554 377.263,134.867 377.201,136.961 C377.136,139.056 378.13,139.515 379.48,139.831 C381.389,140.277 385.958,140.113 385.958,140.113 L384.442,134.425" fill="#5D7CA8"/>
    <path d="M333.273,102.119 C333.273,102.119 335.547,104.512 338.118,104.569 C338.507,105.229 337.633,107.289 337.633,107.289 C337.633,107.289 331.208,107.147 329.133,105.322 C329.227,105.13 331.634,103.809 333.273,102.119" fill="#FFFFFE"/>
    <path d="M348.589,104.49 L351.913,104.49 L351.913,108.513 L348.589,108.513 z" fill="#FFFFFE"/>
    <path d="M354.886,104.49 L358.209,104.49 L358.209,108.513 L354.886,108.513 z" fill="#FFFFFE"/>
    <path d="M361.182,104.49 L364.505,104.49 L364.505,108.513 L361.182,108.513 z" fill="#FFFFFE"/>
    <path d="M367.478,104.49 L370.801,104.49 L370.801,108.513 L367.478,108.513 z" fill="#FFFFFE"/>
    <path d="M373.774,104.49 L377.098,104.49 L377.098,108.513 L373.774,108.513 z" fill="#FFFFFE"/>
    <path d="M380.071,104.49 L383.394,104.49 L383.394,108.513 L380.071,108.513 z" fill="#FFFFFE"/>
    <path d="M386.366,104.49 L389.689,104.49 L389.689,108.513 L386.366,108.513 z" fill="#FFFFFE"/>
    <path d="M392.662,104.49 L395.985,104.49 L395.985,108.513 L392.662,108.513 z" fill="#FFFFFE"/>
    <path d="M398.959,104.49 L402.282,104.49 L402.282,108.513 L398.959,108.513 z" fill="#FFFFFE"/>
    <path d="M405.254,104.49 L408.578,104.49 L408.578,108.513 L405.254,108.513 z" fill="#FFFFFE"/>
    <path d="M411.551,104.49 L414.874,104.49 L414.874,108.513 L411.551,108.513 z" fill="#FFFFFE"/>
    <path d="M456.781,311.195 L412.19,309.133 L414.622,256.547 L438.308,240.457 L459.252,257.77 L456.781,311.195" fill="#B57151"/>
    <path d="M445.458,310.667 L424.24,309.686 L425.824,275.443 L447.041,276.425 L445.458,310.667" fill="#FFFFFE"/>
    <path d="M446.899,277.345 C446.626,283.257 441.665,287.829 435.817,287.559 C429.972,287.289 425.453,282.277 425.727,276.365 C426,270.451 430.962,265.879 436.808,266.149 C442.655,266.42 447.173,271.431 446.899,277.345" fill="#FFFFFE"/>
    <path d="M436.927,309.812 L434.263,309.688 L436.413,263.196 L439.077,263.319 L436.927,309.812" fill="#B57151"/>
    <path d="M449.284,279.927 L423.702,278.744 L423.793,276.776 L449.375,277.959 L449.284,279.927" fill="#B57151"/>
    <path d="M448.837,289.603 L423.255,288.419 L423.346,286.451 L448.928,287.635 L448.837,289.603" fill="#B57151"/>
    <path d="M448.428,298.457 L422.846,297.273 L422.937,295.307 L448.519,296.489 L448.428,298.457" fill="#B57151"/>
    <path d="M465.855,262.363 L436.778,237.84 L438.449,235.855 L467.528,260.38 L465.855,262.363" fill="#B57151"/>
    <path d="M408.765,259.723 L439.981,237.987 L438.5,235.858 L407.283,257.594 L408.765,259.723" fill="#B57151"/>
    <path d="M100.202,379.278 L97.09,380.744 L88.125,361.725 L91.237,360.258 L100.202,379.278" fill="#7D563A"/>
    <path d="M72.012,326.635 C72.012,326.635 71.061,374.838 91.811,365.06 C112.56,355.28 72.012,326.635 72.012,326.635" fill="#98BB5C"/>
    <path d="M84.098,382.319 L44.134,409.639 L35.348,386.486 C35.348,386.486 39.986,378.1 49.672,371.478 C59.359,364.856 70.514,362.447 70.514,362.447 L84.098,382.319" fill="#B57151"/>
    <path d="M84.098,382.319 L37.596,414.107 L30.921,400.704 L75.729,370.076 L84.098,382.319" fill="#B57151"/>
    <path d="M53.798,401.944 C55.536,404.486 54.884,407.955 52.342,409.691 C49.802,411.429 46.335,410.775 44.596,408.233 C42.859,405.694 43.512,402.226 46.052,400.489 C48.594,398.753 52.062,399.404 53.798,401.944 z" fill-opacity="0" stroke="#FFFFFE" stroke-width="1"/>
    <path d="M53.798,401.944 C55.536,404.486 54.884,407.955 52.342,409.691 C49.802,411.429 46.335,410.775 44.596,408.233 C42.859,405.694 43.512,402.226 46.052,400.489 C48.594,398.753 52.062,399.404 53.798,401.944" fill="#B57151"/>
    <path d="M51.297,403.742 C52.098,404.913 51.796,406.511 50.626,407.311 C49.457,408.11 47.86,407.81 47.059,406.64 C46.259,405.472 46.56,403.872 47.73,403.073 C48.9,402.273 50.498,402.573 51.297,403.742" fill="#FFFFFE"/>
    <path d="M79.832,384.148 C81.569,386.69 80.918,390.158 78.376,391.896 C75.835,393.634 72.367,392.979 70.63,390.438 C68.893,387.897 69.545,384.431 72.085,382.693 C74.627,380.955 78.095,381.609 79.832,384.148 z" fill-opacity="0" stroke="#FFFFFE" stroke-width="1"/>
    <path d="M79.832,384.148 C81.569,386.69 80.918,390.158 78.376,391.896 C75.835,393.634 72.367,392.979 70.63,390.438 C68.893,387.897 69.545,384.431 72.085,382.693 C74.627,380.955 78.095,381.609 79.832,384.148" fill="#B57151"/>
    <path d="M77.33,385.947 C78.13,387.117 77.83,388.716 76.66,389.516 C75.489,390.314 73.893,390.015 73.093,388.844 C72.293,387.676 72.593,386.076 73.763,385.276 C74.933,384.478 76.531,384.776 77.33,385.947" fill="#FFFFFE"/>
    <path d="M65.667,376.422 L58.522,381.305 L53.64,374.161 L60.783,369.276 L65.667,376.422" fill="#FFFFFE"/>
    <path d="M56.343,382.795 L49.199,387.678 L44.315,380.535 L51.461,375.651 L56.343,382.795" fill="#FFFFFE"/>
    <g clip-path="url(#Clip_2)">
      <path d="M994.302,933.536 C978.935,1265.78 697.143,1522.66 364.901,1507.29 C32.659,1491.92 -224.218,1210.13 -208.852,877.888 C-193.485,545.646 88.308,288.768 420.549,304.134 C752.791,319.501 1009.67,601.294 994.302,933.536" fill="#FFFFFE"/>
    </g>
    <path d="M578.388,203.061 C578.388,203.061 578.072,200.288 576.993,197.959 C575.913,195.631 575.431,190.018 576.568,187.897 C579.857,190.793 582.725,192.205 584.338,203.307 C590.993,200.307 593.309,200.913 595.346,199.967 C597.383,199.022 601.342,197.45 602.501,194.613 C602.659,197.812 603.129,200.159 599.625,202.138 C596.122,204.117 588.541,209.315 588.541,209.315 L588.538,210.644 L590.577,213.323 L593.62,213.59 C593.62,213.59 592.682,217.475 589.234,216.334 C588.712,215.78 589.304,215.151 589.304,215.151 C589.304,215.151 581.342,212.479 579.321,210.41 C577.3,208.341 575.929,206.147 574.554,205.281 C573.18,204.416 568.339,201.799 568.339,201.799 L567.1,201.224 L569.368,200.968 C569.368,200.968 571.058,199.653 572.527,200.916 C573.998,202.179 578.388,203.061 578.388,203.061" fill="#65B8B1"/>
    <path d="M595.415,229.217 C595.415,229.217 597.55,224.397 600.813,222.082 C604.077,219.766 609.318,215.613 609.318,215.613 C609.318,215.613 609.152,224.915 606.188,228.669 C605.734,231.212 604.524,233.858 601.883,234.645 C601.869,234.81 603.221,235.584 604.15,235.408 C605.079,235.234 606.07,235.314 606.07,235.314 C606.07,235.314 607.589,241.258 606.205,243.975 C604.91,243.538 601.703,238.955 601.703,238.955 C601.703,238.955 598.995,238.487 596.781,237.063 C594.566,235.637 591.444,232.059 590.911,231.434 C590.38,230.809 587.429,229.241 587.429,229.241 C587.429,229.241 588.457,227.826 589.642,227.589 C590.824,227.351 595.415,229.217 595.415,229.217" fill="#65B8B1"/>
  </g>
</svg>
